<svg xmlns="http://www.w3.org/2000/svg" width="118.145" height="118.366" viewBox="0 0 118.145 118.366">
  <g id="Grupo_4222" data-name="Grupo 4222" transform="translate(-116.855 -139.634)">
    <path id="Icon_awesome-user-circle" data-name="Icon awesome-user-circle" d="M58.068,0a58.068,58.068,0,1,0,58.068,58.068A58.058,58.058,0,0,0,58.068,0Zm0,22.478a20.6,20.6,0,1,1-20.6,20.6A20.605,20.605,0,0,1,58.068,22.478Zm0,80.546a44.868,44.868,0,0,1-34.3-15.969,26.106,26.106,0,0,1,23.063-14,5.729,5.729,0,0,1,1.662.258,31,31,0,0,0,9.577,1.616,30.883,30.883,0,0,0,9.577-1.616,5.729,5.729,0,0,1,1.662-.258,26.106,26.106,0,0,1,23.063,14A44.868,44.868,0,0,1,58.068,103.023Z" transform="matrix(1, -0.017, 0.017, 1, 116.855, 141.661)" fill="#bababa"/>
  </g>
</svg>
